<?xml version="1.0" encoding="utf-8"?>
<!-- Generator: Adobe Illustrator 24.1.1, SVG Export Plug-In . SVG Version: 6.00 Build 0)  -->
<svg version="1.1" id="Layer_1" xmlns="http://www.w3.org/2000/svg" xmlns:xlink="http://www.w3.org/1999/xlink" x="0px" y="0px"
	 viewBox="0 0 1031.8 728.5" style="enable-background:new 0 0 1031.8 728.5;" xml:space="preserve">
<style type="text/css">
	path{fill:#FFFFFF;}
	polygon{fill:#FFFFFF;}
</style>
<g>
	<path d="M442,354.1c0,0.3,0,0.6,0.1,1c0.1,0.6,0.1,1.2,0.2,1.8c0.1,0.7,0.5,0.9,1.1,0.6c0.3-0.1,0.6-0.3,0.9-0.6l0,0
		c3.4-3.3,7.1-6.2,9.7-10.3c2.5-4.1,5.5-7.9,8.4-11.8c2.5-3.4,5-6.8,7-10.6c0.2-0.4,0.5-0.8,0.9-1.4c0,4.5,0,8.7,0,12.9
		c0,6.8,0.1,13.6,0.2,20.4c0,0.4,0.2,1.1,0.5,1.2c0.4,0.1,1-0.1,1.4-0.3c1.8-1.5,3.6-3.1,5.2-4.8c2.3-2.3,4.2-4.9,7.2-6.4
		c0.1,0,0.1-0.2,0.3-0.4c-0.2-0.5-0.4-1.1-0.6-1.7c-0.5-1.2-1.1-2.5-1.6-3.7c-1.1-2.7-1.6-5.5-1.5-8.5c0.1-2.3,0.2-4.6,0.2-6.9
		c0.1-5.4,0.2-10.7,0.2-16.1c0-7.4-0.2-14.7-0.4-22.1c0-2.3-0.6-2.9-2.8-3.4c-1.2-0.3-2.5-0.5-3.8-0.5c-4.7-0.3-9.3-0.5-14-0.7
		c-0.4,0-0.9,0.1-1.4,0.3c-2.9,1-5.5,2.5-7.7,4.8c-0.5,0.6-1.2,1-1.7,1.5c-1.3,1.4-2.8,2.7-3.9,4.3c-1.5,2.1-2.9,4.3-4.1,6.6
		c-0.6,1.2-1,2.6-1.2,4c-0.3,1.6-0.3,3.3-0.5,4.9c-0.7,6.6-0.5,13.2-0.1,19.8C440.4,336.7,441.3,345.4,442,354.1z M451.3,301.3
		c0.2-3.1,1.5-5.9,3.1-8.7c4.7,0.2,9.5-0.3,14.4,0.4c0.5,2.5,0.7,5,0.8,7.4c0,1.1-0.1,2.2-0.1,3.4c0.3,4.4-1.4,8.3-2.7,12.3
		c-2,6.1-4.6,11.9-8,17.3c-1.7,2.6-3.6,5.1-5.5,7.6c-0.1,0.2-0.4,0.3-0.8,0.6c-0.1-1.7-0.2-3-0.3-4.4c-0.4-8.3-0.9-16.6-1.1-24.9
		C451,308.6,451.1,305,451.3,301.3z"/>
	<path d="M542.7,328.5c0.1-0.3,0.3-0.7,0.5-0.9c3.1-4,7.9-6.4,11.3-10.1c3.3-3.6,5.6-8,7.1-12.6c1.7-5.3,1.7-10.6-0.8-15.7
		c-0.8-1.7-1.9-3.3-3.4-4.5c-3.9-3.3-9.7,2.6-12.6,5c-3.8,3.2-7.6,7-10.1,11.4c-3.1,5.4-3.1,10.6-3.3,16.7c-0.3,6-0.4,11.9,0,17.9
		c0.3,4.9,1,9.7,3.4,14.1c2.2,4.1,5.5,7.1,10.6,7.5c1.7,0.1,3.5,0.2,5.2,0.2c2.5,0,4.7-1.1,6.7-2.3c2-1.2,3.8-2.8,5.7-4.2
		c1.7-1.2,2.8-2.8,3.6-4.5c0.2-0.5,0.2-1.1,0.3-1.6c-0.1-0.1-0.3-0.1-0.4-0.2c-0.6,0.6-1.1,1.1-1.7,1.7c-2.2,2.1-4.7,3.4-7.9,2.7
		c-2.4-0.5-4.6-1.3-6.7-2.5c-2.3-1.4-4.4-3.2-5.5-5.7c-1.5-3.4-2.1-7.1-2.4-10.8c0-0.6,0-1,0.3-1.3
		C542.7,328.6,542.7,328.5,542.7,328.5z M542.3,324.1c0-2.8-0.2-5.2-0.1-7.7c0.1-4.5,0.3-9,0.6-13.5c0.1-2.1,0.5-4.2,1.3-6.1
		c0.7-1.8,3.2-8.2,6.3-6.3c1.9,1.2,2.1,4.1,2.5,6.1c0.6,2.9,1.4,5.7,1.3,8.8c-0.2,3.3-0.9,6.8-2.6,9.8c-1.9,3.4-5.3,5.8-8.3,8.3
		C543,323.7,542.8,323.8,542.3,324.1z"/>
	<path d="M493.7,356.7c2.1-1.2,5.7-3.5,9.4-6.6c1.4-1.2,2.9-2.6,4.2-4.1c5.5-5.5,10.3-11.4,13.9-18c2.1-3.8,4.2-7.7,5.6-11.8
		c1.6-4.9,1.8-10,1.9-15.1c0.1-4,0-8-1-11.9c-1.8-6.9-5.7-12.8-11.1-18c-1.1-1-2.3-2-3.6-2.8c-0.7-0.5-1.2-0.7-1.7-0.8l-4.6,12.7
		c4.1,3.7,7.4,7.9,9.4,12.8c3.4,8.1,3.5,16.4,2.1,24.8c-1.1,6.4-4,12.2-7.3,17.9c-1.3,2.2-2.9,4.2-4.5,6.2c-0.3,0.3-0.5,0.6-0.9,0.9
		c-0.2,0.1-0.3,0.3-0.5,0.4l-1.3,1l-0.4,0.3v-5.1c0-2.8,0-5.5-0.1-8.2c-0.1-3.5-0.1-7,0-10.5c0.2-11.3-0.1-22.5-0.5-33.8
		c0-0.3-0.2-0.6-0.2-0.8c-1.1-0.1-1.3,0.5-1.6,1c-1.8,2.5-3.8,4.9-6.4,6.8c-1.3,1-2.4,2.1-3.7,3.1c-0.9,0.7-1,1.4-0.5,2.2
		c1.3,2,1.7,4.3,1.7,6.5c0,9.9,0,19.8-0.1,29.7c0,3.4,0,6.8,0.1,10.3v11.9C491.8,357.7,492.5,357.3,493.7,356.7z"/>
	<path d="M389.9,296.1C389.9,296.1,389.9,296.1,389.9,296.1c-0.9,0.9-2,1.6-3,2.3c1.7,2.3,3,4.5,3.1,7.1c0.2,10.4,0.2,20.8,0.3,31.2
		c0.1,6.5,0.2,12.9,1.9,19.3c0.3,1.1,0.5,1.7,0.8,2.1c0.4,0.6,0.9,0.5,1.6,0c0.3-0.2,0.7-0.5,1.1-0.9c4-3.4,7.7-6.9,11-11.1
		c3.2-4.1,6-8.4,8.9-12.7c1.5-2.2,2.7-4.6,4.3-7.3c0.1,0.9,0.2,1.3,0.1,1.7c-0.1,2.9-0.1,5.8-0.2,8.6c-0.2,7.2-0.4,14.4,0.5,21.7v0
		c0.1,0.6,0.2,1.1,0.4,1.7c0.2,0.1,0.3,0.1,0.5,0.2c0.5-0.6,1.1-1.3,1.6-1.9c0.8-1,1.6-2,2.5-3c1.5-1.6,3.1-3,4.7-4.4
		c1.6-1.3,3.4-2.5,5.3-3.7c-0.8-0.9-1.5-1.7-2.1-2.5c-1.5-1.9-2.7-3.8-2.6-6.3c0.2-6.5,0.3-13,0.5-19.6c0.1-6,0.2-11.9,0.3-17.9
		c0-3.5,0.1-7,0.1-10.5c0-3.6,0.1-7.2,0.1-10.7c0-0.1,0-0.1,0-0.2c-0.8,1.2-2.1,2.7-2.1,2.7c-1.7,2.3-4.2,4.9-6.3,7
		c-2.1,2-3.8,3.5-3.8,3.5c-0.6,0.5-0.6,1-0.3,1.8c0.5,1.1,1.1,2.4,1.2,3.6c0.2,2.6,0.2,5.2,0.2,7.8c0,1.3,0.1,2.6-0.2,3.8
		c-1,3.7-2.1,7.3-3.5,10.8c-2.8,7.1-6.4,13.9-10.5,20.3c-0.5,0.8-2.4,4.5-3.6,4c-0.5-0.2-0.5-5.8-0.6-6.5
		c-0.1-7.3-0.2-14.6-0.3-21.9c0-7.6,0-15.1,0-22.7v-12c-0.1,0.3-0.2,0.6-0.4,0.9C398,290.3,390.5,295.7,389.9,296.1z"/>
	<path d="M585,306.8c0-0.7,0.2-1.3,0.7-1.8c2-2.1,3.9-4.3,5.9-6.4c0.2-0.2,0.5-0.4,0.8-0.6c0.4,0.7,0.8,1.3,1.2,1.9
		c1.2,1.8,2.5,3.5,4.4,4.8c1.1,0.7,2.1,0.9,3.1,0c1.6-1.5,3.3-2.9,4.9-4.5c0.8-0.8,1.4-1.7,2-2.6c0.5-0.8,0.4-1.7-0.4-2.4
		c-0.8-0.7-1.7-1.3-2.5-2c-1.7-1.5-2.9-3.4-3.8-5.5c-0.6-1.5-1.7-2.4-3.2-3c-3.3,2.8-5.5,6.5-8,9.9c-1.4,2-3.2,3.5-5.3,5.3
		c-0.2-2-0.5-3.7-0.5-5.4c0-2.9,0.3-5.9,0.4-8.8c0-0.7,0.5-1.6-0.5-2c-0.8-0.3-1.2,0.6-1.5,1.1c-1.3,2-2.9,3.7-4.6,5.3l-1.4,1.2
		c-0.4,0.3-0.8,0.6-1.1,0.9c-1.4,1-2.8,2-4.2,3.1c-0.9,0.7-1,1-0.4,2c0.2,0.3,0.3,0.6,0.5,0.8c0.8,1.5,1.5,3,1.5,4.7
		c0.1,3.3,0.4,6.6,0.4,10c0,5.8-0.3,11.6-0.2,17.3c0.1,8.2,0.5,16.4,0.7,24.6c0,0.6,0,1.3,0,1.9c0,0.7-0.4,1.6,0.6,1.9
		c0.9,0.3,1.2-0.6,1.5-1.1c0.9-1.6,2.1-2.8,3.5-3.8c1.5-1.2,3.1-2.4,4.6-3.6c1.2-0.9,2.3-1.9,3.5-2.8c0.5-0.4,0.7-0.8,0.5-1.4
		c-0.3-0.9-0.6-1.8-0.9-2.8c-0.7-2.5-1.8-4.9-2.1-7.5c-0.4-4.2-0.3-8.5-0.3-12.7C584.8,317.6,585,312.2,585,306.8z"/>
	<path d="M492,258c20.5,6.4,43,3.9,63.5-1.9c7.2-2,14.4-4.2,21.6-6.3c0.9-0.3,1.9-0.5,3-0.8c0,0,9.5-3.3,9.5-3.3
		c9.5-3.2,18.9-6.7,28.8-9.2c0.4-0.2,0.8-0.3,1.2-0.4c0.3-0.1,0.5-0.1,0.8-0.2c0.1,0,0.2-0.1,0.3-0.1c0.3-0.1,0.4-0.1,0.2,0
		c0.2,0,0.5-0.2,0.7-0.3c0,0,0.1,0,0.1,0c0,0,0-0.1,0-0.1c1-0.3,2.1-0.5,3.3-0.8c6.6-1.8,13.2-3.3,20-4.4c5.4-0.9,10.9-1.5,16.3-1.4
		c5.5,0.1,10.9,1,16.2,2.7c10.3,3.3,18.3,9.3,23.3,18.8c2.7,5,4.6,10.2,5.6,15.8c1.7,10,0.9,20.9-2.8,30.4
		c-5.9,14.9-19.3,22.9-33,28.7c-0.4,0.2-1.6,0.6-3.1,1.1c4.5-3,8-6.7,10.5-10.2c2.6-3.3,4.6-7,5.9-10.9c0.1-0.3,0.2-0.5,0.2-0.5
		c1.7-5.3,1.7-10.6-0.8-15.7c-0.9-1.7-1.9-3.3-3.4-4.5c-3-2.5-6.9,0.1-9.3,2c-2.8,2.2-5.5,4.1-7.8,6.8c-6,7-8.5,15.2-8.9,24.2
		c-0.2,4.2-0.3,8.4-0.2,12.6c-1.1,0.1-1.8,0.2-1.8,0.2c0.2,0.2,0.9,0.2,1.8,0.1c0,0.1,0,0.1,0,0.2c-1.2,0.1-1.8,0.2-1.8,0.2
		c0.5,0.1,1.1,0.1,1.8,0.1c0,1.5,0.1,3,0.2,4.6c0.3,4.9,1,9.7,3.4,14.1c2.2,4.1,5.5,7.1,10.6,7.5c1.7,0.1,3.5,0.2,5.2,0.2
		c2.5,0,4.7-1.1,6.7-2.3c2-1.2,3.8-2.8,5.8-4.2c1.7-1.2,2.7-2.8,3.6-4.5c0.2-0.5,0.2-1.1,0.3-1.6l-0.4-0.2c-0.6,0.6-1.1,1.1-1.7,1.7
		c-2.2,2.1-4.7,3.4-7.9,2.7c-2.4-0.5-4.6-1.3-6.7-2.5c-2.3-1.4-4.4-3.2-5.5-5.7c-1.5-3.4-2.1-7.1-2.4-10.8c0-0.5,0-1,0.3-1.3
		c0,0,0-0.1,0-0.1c0.1-0.2,0.2-0.4,0.3-0.6c5.1-1.4,10.3-2.8,15.1-5.2c11.7-5.7,22-14.9,28.4-26.8c4.8-9,7.4-19.4,7.3-29.7
		c0-4-0.5-8-1.4-11.9c-1.3-5.5-3.5-10.8-6.6-15.6c-21.4-32.3-66.9-20.1-97.5-9.5c-5.9,2.1-11.9,4.1-17.8,6.2l-0.2,0.1
		c-0.9,0.3-1.8,0.6-2.7,0.9c0,0-0.1,0-0.2,0l-10,3.4c-0.3,0.3-0.8,0.5-1.3,0.6c-6.7,1.9-13.3,3.9-20,5.7
		c-26.6,7-75.4,16.9-90.6-14.3c-9-18.5,4.6-37.4,23.1-43.1c-14.6,1.9-27.3,14.3-29.6,28.7C458,238,474,252.4,492,258z M664.6,324.1
		c-0.1-2.8-0.2-5.2-0.1-7.7c0.1-4.5,0.3-9,0.6-13.5c0.2-3.9,1.5-9.2,4.6-11.9c4.4-3.8,6,5.4,6.3,7.7c0.7,4.6,0.6,9.8-1.4,14.1
		c-2,4.3-5.4,7.6-9,10.6C665.4,323.7,665.1,323.8,664.6,324.1z"/>
	<path d="M637,310.5c4.5-3.3,9.5-7.3,9.4-13.4c-0.2-6.5-6.2-12-12.5-12.6c-6.1-0.6-12.6,2.3-16.8,6.7c-3,3.2-5.5,6.8-7.2,10.9
		c-1.2,2.8-2.1,5.8-1.3,8.9c0.2,0.8,0,1.4-0.5,2c-1.1,1.5-2.1,3-3.4,4.4c-4,4.7-5.3,10.1-4.4,16.2c0.6,3.7,2.6,6.7,4.9,9.4
		c4.7,5.3,9.4,10.5,14.3,15.6c0.5,0.5,1,1,1.5,1.5c3.1,3.3,6.1,6.6,8.9,10.1c1.7,2.1,3.3,4.2,4.8,6.3c0.7,1,1.4,2.1,2,3.1
		c1.5,2.6,2.6,5.3,3.1,8.4c0.1,0.6,0.1,1.2,0.2,1.7c0.1,2.2-0.4,4.3-1.8,6.3c-0.5,0.7-0.9,1.5-1.5,2.6c0.6-0.2,0.9-0.1,1.1-0.3
		c2.3-2.3,4.5-4.6,6.7-6.9c0.5-0.5,0.9-1.1,1.3-1.6c0.3-0.4,0.6-0.8,1-1.1c2.4-2.4,3.2-5.4,3-8.8c0-0.1,0-0.1,0-0.2
		c-0.3-3.2-1.5-6.1-3.1-8.7c-0.2-0.3-0.3-0.5-0.5-0.8c-2.1-3.1-4.3-6.1-6.5-9.1c-0.3-0.4-0.5-0.7-0.8-1c-1.2-1.5-2.4-2.9-3.7-4.4
		c1.6-2,3.1-3.9,4.6-5.7c2-2.3,3.6-4.9,4.9-7.7c2-4,1.7-7.7-0.8-11.3c-0.2-0.3-0.4-0.6-0.6-0.8c-2.3-3.4-5.1-6.4-8.2-9.1
		c-4.2-3.6-8.6-6.9-12.2-11.1c-1-1.2-2-2.3-2.8-3.6c-1.1-1.7-1.8-3.6-1.7-5.6c0.2-3,1.3-4.9,4-5.4c1.9-0.3,3.9-0.5,5.8,0
		c3.3,0.8,5.5,3.1,7.3,6c1.9,3,2.3,6.1,0.7,9.5C636.6,310.7,636.8,310.7,637,310.5z M626,331.1c3.2,2.6,6.1,5.6,8.4,9.1
		c3,4.5,1.8,10.1-0.9,13.4c-0.5-0.5-1-0.9-1.5-1.4c-4.6-4.9-9.2-9.8-13.8-14.7c-2.3-2.5-4.6-4.9-6.3-7.9c-1.8-3.1-1.9-6.3-1.5-9.7
		c0.1-1,0.4-1.9,0.6-3.1c0.4,0.3,0.6,0.4,0.7,0.6C615.9,322.7,620.9,327,626,331.1z"/>
	<path d="M641.8,360.2l0.5,0.7c2.2,2.9,4.4,5.9,6.4,9c0.1,0.2,0.2,0.3,0.3,0.5l61.1-0.1l22.1-10.2L641.8,360.2z"/>
	<path d="M637.8,388.6c-0.5-2.9-1.6-5.7-3.6-8.8l-256.6,0.3c-0.1,0.3-0.3,0.7-0.4,1c-1.6,3.3-3.4,6.4-5.6,9.2l26.1,0L638,390
		C638,389.5,637.9,389.1,637.8,388.6z"/>
	<path d="M679.2,389.9l23.4-10.2l-50.3,0c0,0,0,0,0,0.1c0.3,4-0.7,7.4-3.2,10.1L679.2,389.9z"/>
	<path d="M368.8,390.2c2.6-3.2,4.7-6.6,6.4-10.1c1.5-3,2.6-6.2,3.5-9.5l38.7,0l25.9,0l183.8-0.2c-2.6-3.2-5.6-6.5-9.1-10.1
		l-237.3,0.2c0.5-3.5,0.7-7,0.9-10.5c0.1-2.1,0.1-4.2,0.1-6.3c0.1-10.6,0.1-21.3-0.1-31.9c0-2.6-0.1-5.3-0.1-7.9
		c0-6.6-0.2-13.1-0.2-19.7c0-9.3-0.1-18.7,0.1-28c0.1-8.1,0-16.3,2.9-23.9c2-5.2,6.2-11.2,12.4-11.7c-5,0-9.2,1.1-12.7,3.1
		c-20.8,11.5-14.2,39-17.1,58.2c-0.2,1-0.3,2.1-0.5,3.1c-1.8,10.4-4.3,20.8-10.4,29.4c-2.9,4.1-6.2,7.8-9.6,11.3
		c-1.7,1.8-3.5,3.5-5.3,5.2c-0.7,0.6-4.8,3.7-4.8,4.4c-0.6-20.7-1.2-60.2-1.8-80.9l-0.2-6.1v-0.2l0-1.3l-0.1,0l-0.1,0l-0.4,0.1
		l-0.2,0.1l-0.2,0c0,0.4-0.1,0.7-0.2,1.1c-0.1,0.6-0.2,1.3-0.4,1.9c-1.7,6.7-5.3,11.1-8.4,13.8c-0.2,0.2-0.4,0.3-0.5,0.5
		c-0.8,0.7-1.6,1.2-2.3,1.6c-0.3,0.2-0.6,0.4-0.9,0.5l0,0l-2.2,1.1l-0.1,0c0,0,0.6,0.2,1.5,1.8c1.1,2,2.7,6.2,4,14.8v22.4
		c0.1,3.5,0,6.9,0.1,10.3c0.2,11.7,0.5,23.4,0.7,35.1c2.3-0.6,4.2-2.5,5.9-4.3c12.9-13.6,26.6-27.5,37.8-42.8c0.1,1,0.1,2.1,0.1,3.2
		c0.1,12.5,0.3,25.1,0.4,37.6c0,4.9,0,9.8-0.1,14.6c0,0,0,0.1,0,0.1c0,0-18.5,0-20.2,0c-13.8,0.3-27.5,3.9-38.7,12.2
		c-6.1,4.5-11.3,11.4-10.1,19.6c0,0.2,0,0.3,0.1,0.5c0,0.2,0.1,0.4,0.1,0.6c1.6,6.9,8,11.5,14.4,13.8c0.1,0,0.2,0.1,0.2,0.1
		c7.1,2.5,14.7,2.9,22.1,1.6c1.7-0.3,3.5-0.7,5.2-1.2c0.4-0.1,0.8-0.2,1.2-0.4c8.5-2.7,16.5-7.5,22.9-13.9
		C367,392.4,367.9,391.3,368.8,390.2z M360.3,389.5c-0.2,0.3-0.4,0.5-0.7,0.8c-1,1.2-2,2.2-3.2,3.1c-8,6.6-20.2,7.8-29.7,4.3
		c-5.9-2.2-18.9-10.8-17-18.3c1.2-4.9,8.4-6.7,12.4-7.5c10.5-2.2,21.3-1.2,31.9-1.2l13.6,0c-0.3,1.7-0.7,3.4-1.1,5.1
		c-0.5,1.9-1.2,3.9-2,5.9C363.5,384.5,362.1,387.2,360.3,389.5z"/>
	<polygon points="506.3,215.7 508.1,234.6 510.4,215.4 528.8,213.9 510.4,211.5 508.1,193.3 506,211.5 487.5,213.9 	"/>
	<polygon points="523.1,469.2 521.9,479.3 511.6,480.7 522.1,481.7 523.1,492.2 524.4,481.5 534.7,480.7 524.4,479.3 	"/>
	<polygon points="604.4,444.4 603.5,452 595.8,453 603.6,453.7 604.4,461.6 605.4,453.6 613,453 605.3,452 	"/>
	<polygon points="400.7,417.3 390.3,418.7 400.9,419.7 401.9,430.3 403.2,419.5 413.6,418.7 403.2,417.3 401.9,407.1 	"/>
	<path d="M697.2,420.2c-0.8-0.9-1.6-1.8-2.5-2.6c-0.9-0.8-1.7-1.6-2.7-2.3c-3.7-2.9-8-5.1-12.5-6.6c-9-3.1-18.5-4.1-27.8-4.4
		c-9.4-0.4-18.9,0-28.2,1.4c-2.3,0.3-4.6,0.7-7,1.1l-6.9,1.2c-4.6,0.9-9.2,1.7-13.8,2.8c-9.2,2-18.4,4.3-27.5,6.7
		c-4.5,1.2-9.1,2.4-13.7,3.8c-4.6,1.4-9,2.9-13.5,4.5c-8.9,3.1-17.6,6.6-26.3,10.1c-8.7,3.5-17.3,7.1-25.8,10.8
		c-4.3,1.8-8.6,3.6-12.9,5.3c-1.1,0.4-2.2,0.8-3.3,1.2l-3.3,1.2c-2.2,0.8-4.4,1.5-6.7,2.3c-5.7,1.9-11.4,3.6-17.2,5
		c-3.2-1.8-6.3-3.9-9.1-6.4c-1.4-1.3-2.7-2.8-3.8-4.4c-1.1-1.6-2-3.3-2.8-5.1c-1.4-3.6-2-7.5-1.5-11.3c0.1-0.9,0.4-1.8,0.6-2.8
		c0.3-0.9,0.6-1.8,1.1-2.6c0.4-0.8,0.9-1.7,1.5-2.6c0.5-0.9,1.1-1.7,1.7-2.5c4.8-6.5,11.9-11.3,19.6-14.6c7.7-3.3,16.1-5,24.6-5.6
		c8.5-0.7,17.1-0.4,25.4,1.5c4.2,0.9,8.2,2.3,12,4.2c3.8,1.9,7.4,4.4,10.3,7.6c-2.7-3.4-6.1-6.2-9.9-8.4c-3.8-2.2-7.9-3.9-12.1-5.1
		c-8.4-2.4-17.3-3.1-26-2.9c-8.7,0.3-17.6,1.7-25.9,4.8c-8.3,3.1-16.2,8.2-22,15.4c-0.7,0.9-1.4,1.8-2,2.8c-0.6,1-1.3,1.9-1.8,3
		c-0.6,1.1-1,2.2-1.5,3.3c-0.3,1.2-0.7,2.3-0.9,3.5c-0.9,4.8-0.2,9.7,1.5,14.2c0.9,2.2,1.9,4.4,3.2,6.3c1.3,2,2.8,3.8,4.6,5.5
		c1.4,1.3,2.9,2.6,4.5,3.7c-0.4,0.1-0.8,0.1-1.2,0.2c-2.3,0.4-4.6,0.5-7,0.6c-2.3,0.1-4.7,0.2-7,0.2c-4.7,0-9.4-0.1-14-0.4
		c-9.2-0.6-18.4-2.1-26.7-6l-3.1-1.6l-2.9-1.8c-0.5-0.3-1-0.6-1.4-1l-1.4-1c-0.5-0.4-0.9-0.7-1.4-1.1l-1.2-1.2
		c-3.3-3.2-5.6-7.2-7-11.6c-1.4-4.4-1.7-9.1-1.1-13.6c0.7-4.6,2.5-9,5.1-12.8l-0.4-0.3c-2.8,3.8-4.8,8.2-5.7,12.9
		c-0.8,4.7-0.7,9.6,0.7,14.2c1.3,4.6,3.7,9,7,12.5l1.3,1.3c0.4,0.4,0.9,0.8,1.4,1.2l1.4,1.1c0.5,0.4,0.9,0.8,1.4,1.1l3,2l3.1,1.8
		c8.6,4.5,18.3,6.3,27.8,6.3c4.7,0,9.5-0.3,14.2-0.6c2.3-0.2,4.7-0.3,7-0.4c2.3-0.2,4.7-0.1,7.1-0.5c0.9-0.1,1.9-0.2,2.8-0.3
		c1.6,1.1,3.2,2.1,4.9,3.1c4,2.2,8.4,3.8,12.8,5c4.4,1.1,8.9,1.9,13.4,2.1c4.5,0.2,9,0.1,13.5-0.3c4.5-0.5,8.9-1.3,13.2-2.4
		c4.3-1,8.5-2.3,12.6-3.6c4.2-1.4,8.3-2.9,12.3-4.5c8.1-3.3,16-6.9,23.8-10.5c7.8-3.7,15.8-7.2,23.6-10.8c7.9-3.5,15.8-6.9,24-9.4
		c4.1-1.2,8.3-2.2,12.5-2.9c4.2-0.7,8.5-1,12.8-0.7c4.3,0.4,8.5,1.3,12.6,2.6c4.1,1.3,8.1,3,11.7,5.3c1.8,1.1,3.6,2.4,5.1,3.9
		c1.5,1.5,2.8,3.2,3.6,5.2c0.8,2,0.9,4.2,0.4,6.3c-0.5,2.1-1.6,4-3,5.7l-0.5,0.6l-0.5,0.6l-1.1,1.2c-0.4,0.4-0.8,0.7-1.2,1.1
		c-0.4,0.3-0.8,0.7-1.3,0.9c-1.8,1.1-3.9,1.8-6,2.1c-4.3,0.6-8.6-0.2-12.8-1.3c4.1,1.2,8.5,2,12.8,1.4c2.1-0.3,4.3-1,6.1-2.1
		c0.5-0.3,0.9-0.6,1.3-0.9c0.4-0.3,0.8-0.7,1.2-1.1l1.1-1.2l0.6-0.6l0.5-0.6c1.4-1.7,2.5-3.6,3-5.7c0.6-2.1,0.5-4.4-0.3-6.5
		c-0.8-2.1-2.1-3.9-3.6-5.4c-1.5-1.6-3.3-2.9-5.1-4.1c-3.7-2.3-7.7-4.1-11.8-5.5c-4.1-1.4-8.4-2.4-12.7-2.9
		c-4.4-0.3-8.7-0.1-13.1,0.5c-4.3,0.6-8.6,1.5-12.8,2.7c-8.4,2.4-16.5,5.6-24.4,8.9c-4,1.7-8,3.3-12,4.9c-4,1.5-8.1,3.1-12.2,4.5
		c-8.1,2.9-16.3,5.6-24.5,8.2c-8.2,2.5-16.4,5-24.6,7.1c-4.1,1-8.1,1.9-12.3,2.4c-4.1,0.5-8.3,0.6-12.4,0.5
		c-4.1-0.1-8.2-0.8-12.2-1.7c-3.1-0.8-6.2-1.8-9.2-3.1c5.1-0.8,10.1-1.8,15.1-2.8l6.9-1.4l3.5-0.7c1.2-0.3,2.4-0.5,3.5-0.8
		c2.3-0.6,4.6-1.2,6.9-1.8l3.4-0.9l3.4-1c18.2-5.4,35.5-12.9,52.6-20.5l12.8-5.7c4.2-1.9,8.6-3.6,12.9-5.3
		c8.7-3.5,17.5-6.8,26.4-9.5c17.9-5.7,36.8-7.6,55.4-7.1c9.3,0.3,18.8,1.1,27.6,4.1c4.4,1.5,8.6,3.6,12.3,6.4c1,0.7,1.8,1.5,2.7,2.2
		c0.9,0.7,1.6,1.6,2.4,2.5c1.5,1.7,3,3.6,3.9,5.7c2,4.2,2.9,8.9,2.6,13.5c-0.3,4.7-1.6,9.2-3.7,13.4c-4.2,8.4-11,15.4-19.3,19.7
		l0.1,0.1c8.4-4.3,15.3-11.3,19.6-19.7c2.1-4.2,3.5-8.8,3.9-13.5c0.3-4.7-0.5-9.5-2.5-13.8C700.2,423.9,698.8,422,697.2,420.2z"/>
</g>
</svg>
